<svg xmlns="http://www.w3.org/2000/svg" width="110" height="110" fill="none"><rect width="110" height="110" fill="#EBF2F0" rx="55"/><g stroke="#33836E" stroke-linejoin="round" stroke-miterlimit="10" stroke-width="1.719" clip-path="url(#a)"><path d="M57.912 67.188v5.773a1.18 1.18 0 0 1-1.18 1.18h-3.464a1.18 1.18 0 0 1-1.18-1.18v-5.638"/><path stroke-linecap="round" d="M57.912 61.539h-5.824M66.09 62.634c6.125-6.125 6.125-16.056 0-22.181s-16.056-6.125-22.18 0c-6.126 6.125-6.126 16.056 0 22.181 6.125 6.125 16.055 6.125 22.18 0Z"/><path stroke-linecap="round" d="M55 41.424V61.54m0-20.117 3.462 3.901M55 41.424l-3.462 3.901M62 55.633l3.902-3.461L62 48.71"/><path stroke-linecap="round" d="M65.902 52.172h-7.956A2.946 2.946 0 0 0 55 55.118"/></g><defs><clipPath id="a"><path fill="#fff" d="M35 35h40v40H35z"/></clipPath></defs></svg>