<svg xmlns="http://www.w3.org/2000/svg" width="24" height="25" fill="none"><g fill="#33836E" fill-rule="evenodd" clip-rule="evenodd"><path d="M2.36 10.391a.75.75 0 0 1 .249-1.031l9-5.5a.75.75 0 0 1 .782 0l9 5.5a.75.75 0 0 1-.782 1.28L12 5.379l-8.609 5.26a.75.75 0 0 1-1.031-.248ZM4.25 20.5a.75.75 0 0 1 .75-.75h14a.75.75 0 0 1 0 1.5H5a.75.75 0 0 1-.75-.75Z"/><path d="M9.25 9.5a.75.75 0 0 1 .75-.75h4a.75.75 0 0 1 0 1.5h-4a.75.75 0 0 1-.75-.75ZM6 11.75a.75.75 0 0 1 .75.75v5a.75.75 0 0 1-1.5 0v-5a.75.75 0 0 1 .75-.75ZM10 11.75a.75.75 0 0 1 .75.75v5a.75.75 0 0 1-1.5 0v-5a.75.75 0 0 1 .75-.75ZM14 11.75a.75.75 0 0 1 .75.75v5a.75.75 0 0 1-1.5 0v-5a.75.75 0 0 1 .75-.75ZM18 11.75a.75.75 0 0 1 .75.75v5a.75.75 0 0 1-1.5 0v-5a.75.75 0 0 1 .75-.75Z"/></g></svg>