<svg xmlns="http://www.w3.org/2000/svg" width="110" height="110" fill="none"><rect width="110" height="110" fill="#EBF2F0" rx="55"/><g fill="#33836E" clip-path="url(#a)"><path d="M63.12 75c-13.901-.161-31.31-18.016-27.57-32.073.757-4.121 8.064-11.231 12.815-6.184 1.888 2.002 4.32 3.56 4.258 6.654.014 1.952-.918 3.462-2.33 4.726a4.456 4.456 0 0 0-.344 5.915 36.886 36.886 0 0 0 5.978 5.98 4.456 4.456 0 0 0 5.916-.345l.647-.647a5.727 5.727 0 0 1 4.078-1.684c3.091-.064 4.659 2.375 6.654 4.26 5.04 4.793-2.044 12.029-6.183 12.814-1.207.39-2.522.584-3.92.584ZM44.426 36.718c-2.882-.114-6.725 4.068-7.19 6.541-3.027 11.525 9.025 24.785 19.394 28.708 5.047 1.805 9.676 2.061 13.488-1.144 2.54-2.176 4.502-5.4 1.89-8.007l-2.576-2.575c-1.499-1.563-4.229-1.563-5.727 0l-.647.647a6.175 6.175 0 0 1-8.197.477 38.344 38.344 0 0 1-3.31-2.95 38.314 38.314 0 0 1-2.95-3.31 6.175 6.175 0 0 1 .477-8.197l.647-.647c1.563-1.497 1.563-4.23 0-5.727l-2.576-2.576c-.829-.829-1.728-1.24-2.724-1.24ZM67.192 50.92a.86.86 0 0 1-.839-.68 8.611 8.611 0 0 0-2.336-4.292 8.605 8.605 0 0 0-4.36-2.35.86.86 0 0 1 .346-1.683 10.32 10.32 0 0 1 5.23 2.818 10.326 10.326 0 0 1 2.8 5.147.86.86 0 0 1-.84 1.04Z"/><path d="M72.046 55.747a.86.86 0 0 1-.843-1.028A13.525 13.525 0 0 0 67.5 42.467a13.522 13.522 0 0 0-12.272-3.7.859.859 0 1 1-.341-1.685c5.03-1.018 10.2.541 13.828 4.17a15.24 15.24 0 0 1 4.174 13.805.86.86 0 0 1-.842.69Z"/></g><defs><clipPath id="a"><path fill="#fff" d="M35 35h40v40H35z"/></clipPath></defs></svg>