<svg xmlns="http://www.w3.org/2000/svg" width="50" height="50" fill="none"><rect width="50" height="50" fill="#115B82" rx="25"/><path fill="#fff" fill-rule="evenodd" d="M25 25.75A6.25 6.25 0 0 0 18.75 32v1a.75.75 0 0 1-1.5 0v-1a7.75 7.75 0 0 1 15.5 0v1a.75.75 0 0 1-1.5 0v-1A6.25 6.25 0 0 0 25 25.75Z" clip-rule="evenodd"/><path fill="#fff" fill-rule="evenodd" d="M25 17.75a3.25 3.25 0 1 0 0 6.5 3.25 3.25 0 0 0 0-6.5ZM20.25 21a4.75 4.75 0 1 1 9.5 0 4.75 4.75 0 0 1-9.5 0Z" clip-rule="evenodd"/></svg>