<svg xmlns="http://www.w3.org/2000/svg" width="40" height="40" fill="none"><g stroke="#33836E" stroke-linecap="round" stroke-linejoin="round" stroke-miterlimit="10" stroke-width="1.719"><path d="M3.321 36.758V3.242A2.383 2.383 0 0 1 5.704.859h30.974v33.516H5.704a2.383 2.383 0 0 0-2.383 2.383Zm0 0a2.383 2.383 0 0 0 2.383 2.383h30.974m-2.382-4.766v4.766M8.086.859v33.516"/><path d="M22.383 10.47v16.678m-9.531-14.296h19.061M17.617 27.148h9.53M15.236 12.852l-2.383 4.765a2.383 2.383 0 1 0 4.765 0l-2.382-4.765Zm14.296 0 2.382 4.765a2.383 2.383 0 1 1-4.765 0l2.383-4.765Z"/></g></svg>