<svg xmlns="http://www.w3.org/2000/svg" width="24" height="24" fill="none"><g fill="#33836E" fill-rule="evenodd" clip-rule="evenodd"><path d="M10.512 8.441a.75.75 0 0 1 .056 1.06l-.01.01a.75.75 0 0 1-1.115-1.003l.01-.01a.75.75 0 0 1 1.059-.057ZM14.512 8.441a.75.75 0 0 1 .056 1.06l-.01.01a.75.75 0 0 1-1.115-1.003l.01-.01a.75.75 0 0 1 1.059-.057ZM10.512 12.441a.75.75 0 0 1 .056 1.06l-.01.01a.75.75 0 1 1-1.115-1.003l.01-.01a.75.75 0 0 1 1.059-.057ZM14.512 12.441a.75.75 0 0 1 .056 1.06l-.01.01a.75.75 0 1 1-1.115-1.003l.01-.01a.75.75 0 0 1 1.059-.057ZM10.512 16.441a.75.75 0 0 1 .056 1.06l-.01.01a.75.75 0 1 1-1.115-1.003l.01-.01a.75.75 0 0 1 1.059-.057ZM14.512 16.441a.75.75 0 0 1 .056 1.06l-.01.01a.75.75 0 1 1-1.115-1.003l.01-.01a.75.75 0 0 1 1.059-.057Z"/><path d="M18.75 20.4a1.35 1.35 0 0 1-1.35 1.35H6.6a1.35 1.35 0 0 1-1.35-1.35V5.6c0-.746.604-1.35 1.35-1.35h4.65V3.6c0-.746.604-1.35 1.35-1.35h4.8c.746 0 1.35.604 1.35 1.35v16.8Zm-1.5-.15V3.75h-4.5V5a.75.75 0 0 1-.75.75H6.75v14.5h10.5Z"/></g></svg>