<svg xmlns="http://www.w3.org/2000/svg" width="24" height="25" fill="none"><g fill="#33836E"><path fill-rule="evenodd" d="M12 3.25a7.25 7.25 0 0 0-7.25 7.25c0 .907.422 2.07 1.154 3.371.72 1.28 1.69 2.605 2.677 3.811A51.386 51.386 0 0 0 12 21.45a51.376 51.376 0 0 0 3.42-3.768c.985-1.206 1.956-2.531 2.676-3.811.732-1.3 1.154-2.464 1.154-3.371A7.25 7.25 0 0 0 12 3.25Zm0 19.25-.516.544-.007-.006-.018-.018-.07-.067-.26-.254a52.924 52.924 0 0 1-3.71-4.068c-1.014-1.24-2.043-2.64-2.823-4.024-.768-1.364-1.346-2.805-1.346-4.107a8.75 8.75 0 0 1 17.5 0c0 1.302-.578 2.743-1.346 4.107-.78 1.384-1.81 2.783-2.823 4.024a52.92 52.92 0 0 1-3.97 4.322l-.07.067-.018.018-.005.004-.001.002L12 22.5Zm0 0 .517.544-.517.49-.516-.49L12 22.5Z" clip-rule="evenodd"/><path d="M12 11.5a1 1 0 1 0 0-2 1 1 0 0 0 0 2Z"/><path fill-rule="evenodd" d="M12 10.25a.25.25 0 1 0 0 .5.25.25 0 0 0 0-.5Zm-1.75.25a1.75 1.75 0 1 1 3.5 0 1.75 1.75 0 0 1-3.5 0Z" clip-rule="evenodd"/></g></svg>