<svg xmlns="http://www.w3.org/2000/svg" width="24" height="25" fill="none"><g fill="#33836E" fill-rule="evenodd" clip-rule="evenodd"><path d="M8 13.25a6.25 6.25 0 0 0-6.25 6.25v1a.75.75 0 0 1-1.5 0v-1a7.75 7.75 0 0 1 15.5 0v1a.75.75 0 0 1-1.5 0v-1A6.25 6.25 0 0 0 8 13.25Z"/><path d="M18 10.25a4.25 4.25 0 0 0-4.25 4.25h-1.5a5.75 5.75 0 0 1 11.5 0v.5a.75.75 0 0 1-1.5 0v-.5A4.25 4.25 0 0 0 18 10.25ZM8 5.25a3.25 3.25 0 1 0 0 6.5 3.25 3.25 0 0 0 0-6.5ZM3.25 8.5a4.75 4.75 0 1 1 9.5 0 4.75 4.75 0 0 1-9.5 0Z"/><path d="M18 4.25a2.25 2.25 0 1 0 0 4.5 2.25 2.25 0 0 0 0-4.5ZM14.25 6.5a3.75 3.75 0 1 1 7.5 0 3.75 3.75 0 0 1-7.5 0Z"/></g></svg>