<svg xmlns="http://www.w3.org/2000/svg" width="24" height="25" fill="none"><g fill="#33836E" fill-rule="evenodd" clip-rule="evenodd"><path d="M12 12.904a.75.75 0 0 1 .75.75V21.5a.75.75 0 0 1-1.5 0v-7.846a.75.75 0 0 1 .75-.75Z"/><path d="M9 7.635c-.69 0-1.25.56-1.25 1.25v2.769c0 .69.56 1.25 1.25 1.25h6c.69 0 1.25-.56 1.25-1.25v-2.77c0-.69-.56-1.25-1.25-1.25H9Zm-2.75 1.25A2.75 2.75 0 0 1 9 6.135h6a2.75 2.75 0 0 1 2.75 2.75v2.769a2.75 2.75 0 0 1-2.75 2.75H9a2.75 2.75 0 0 1-2.75-2.75v-2.77Z"/><path d="M15.333 2.75a.75.75 0 0 1 .75.75v3.385a.75.75 0 0 1-1.5 0V3.5a.75.75 0 0 1 .75-.75ZM8.667 2.75a.75.75 0 0 1 .75.75v3.385a.75.75 0 0 1-1.5 0V3.5a.75.75 0 0 1 .75-.75Z"/></g></svg>