<svg xmlns="http://www.w3.org/2000/svg" width="24" height="25" fill="none"><g fill="#33836E" fill-rule="evenodd" clip-rule="evenodd"><path d="M11.5 4.25a7.75 7.75 0 0 0-6.577 11.852.75.75 0 1 1-1.271.796A9.25 9.25 0 0 1 11.5 2.75a.75.75 0 0 1 0 1.5ZM19.25 10a.75.75 0 0 1 .75-.75h2.5a.75.75 0 0 1 0 1.5h-1.75V12a9.21 9.21 0 0 1-1.402 4.898.75.75 0 0 1-1.271-.796A7.71 7.71 0 0 0 19.25 12v-2ZM8 18.25a1.25 1.25 0 1 1 0 2.5 1.25 1.25 0 0 1 0-2.5Zm2.75 1.25a2.75 2.75 0 1 0-5.5 0 2.75 2.75 0 0 0 5.5 0ZM15 18.25a1.25 1.25 0 1 1 0 2.5 1.25 1.25 0 0 1 0-2.5Zm2.75 1.25a2.75 2.75 0 1 0-5.5 0 2.75 2.75 0 0 0 5.5 0Z"/><path d="M11.5 2.75a.75.75 0 0 1 .75.75v9a.75.75 0 0 1-1.5 0v-9a.75.75 0 0 1 .75-.75Z"/><path d="M2.75 12.5a.75.75 0 0 1 .75-.75h16a.75.75 0 0 1 0 1.5h-16a.75.75 0 0 1-.75-.75Z"/></g></svg>