<svg xmlns="http://www.w3.org/2000/svg" width="24" height="24" fill="none"><path fill="url(#a)" fill-rule="evenodd" d="M3.27 11.435c4.962-2.162 8.27-3.587 9.925-4.275 4.726-1.966 5.709-2.308 6.349-2.319.14-.002.455.033.659.198.172.14.22.328.242.46.023.133.051.435.029.67-.256 2.692-1.365 9.222-1.928 12.236-.239 1.275-.709 1.703-1.163 1.745-.989.09-1.74-.653-2.696-1.28-1.498-.983-2.344-1.594-3.798-2.552-1.68-1.107-.591-1.716.366-2.71.25-.26 4.605-4.221 4.69-4.58.01-.045.02-.213-.08-.301-.1-.089-.246-.059-.352-.035-.15.035-2.543 1.616-7.178 4.745-.68.466-1.295.694-1.846.682-.608-.013-1.777-.344-2.645-.626-1.066-.347-1.913-.53-1.84-1.118.039-.307.46-.62 1.267-.94Z" clip-rule="evenodd"/><defs><linearGradient id="a" x1="11.241" x2="11.241" y1="4.841" y2="20.044" gradientUnits="userSpaceOnUse"><stop stop-color="#2AABEE"/><stop offset="1" stop-color="#229ED9"/></linearGradient></defs></svg>